<?xml version="1.0" standalone="no"?>
<!DOCTYPE svg PUBLIC "-//W3C//DTD SVG 20010904//EN"
 "http://www.w3.org/TR/2001/REC-SVG-20010904/DTD/svg10.dtd">
<svg version="1.0" xmlns="http://www.w3.org/2000/svg"
 width="700.000000pt" height="700.000000pt" viewBox="0 0 700.000000 700.000000"
 preserveAspectRatio="xMidYMid meet">
<metadata>
Created by potrace 1.14, written by Peter Selinger 2001-2017
</metadata>
<g transform="translate(0.000000,700.000000) scale(0.100000,-0.100000)"
fill="#000000" stroke="none">
<path d="M3458 6505 c-2 -1 -31 -5 -65 -8 -86 -8 -176 -33 -258 -71 -53 -25
-529 -296 -625 -356 -24 -15 -123 -73 -145 -85 -54 -30 -177 -102 -232 -136
-34 -22 -65 -39 -68 -39 -3 0 -24 -11 -46 -26 -22 -14 -55 -33 -72 -43 -18
-10 -138 -80 -267 -156 -129 -76 -255 -149 -280 -163 -344 -193 -433 -279
-545 -523 -32 -71 -55 -217 -50 -324 2 -55 7 -116 10 -135 11 -61 56 -181 87
-234 103 -173 176 -241 413 -378 72 -42 301 -176 510 -298 209 -123 412 -241
450 -263 39 -22 147 -85 240 -140 94 -55 179 -105 190 -111 20 -11 496 -289
525 -307 18 -10 711 -414 755 -439 17 -9 95 -55 175 -102 189 -111 204 -118
237 -118 17 0 88 35 182 90 85 50 156 90 157 90 9 0 173 105 189 121 18 18 19
22 5 45 -9 16 -64 55 -135 96 -66 39 -471 275 -900 525 -429 251 -793 463
-810 473 -16 9 -113 66 -215 125 -511 299 -772 451 -788 460 -231 131 -591
347 -614 369 -72 68 -87 181 -35 269 30 50 49 64 257 184 85 50 331 192 545
318 215 125 404 235 420 245 17 9 183 106 370 215 187 110 358 205 380 213 54
19 121 21 173 5 51 -15 71 -26 647 -362 248 -145 547 -320 665 -389 118 -69
275 -160 348 -203 72 -44 134 -79 137 -79 2 0 28 -15 57 -34 69 -44 112 -88
140 -145 l23 -46 0 -1135 0 -1135 -23 -46 c-40 -80 -94 -122 -323 -251 -24
-14 -397 -232 -829 -484 -431 -252 -802 -464 -824 -472 -58 -19 -134 -20 -186
-2 -25 9 -90 43 -145 75 -159 93 -201 117 -353 206 -79 46 -167 98 -196 114
-445 253 -1203 705 -1231 733 -19 20 -45 57 -57 82 -23 44 -23 50 -25 485 -2
242 -5 454 -8 471 -3 17 -15 40 -28 51 -24 23 -442 268 -490 288 -42 18 -65 8
-72 -29 -8 -41 -1 -1275 7 -1301 4 -11 11 -38 16 -60 18 -74 63 -179 109 -255
57 -93 205 -241 293 -293 36 -21 72 -42 80 -47 8 -5 119 -69 245 -143 127 -73
338 -197 470 -274 132 -77 346 -202 475 -277 129 -76 242 -142 250 -147 59
-36 313 -180 347 -198 210 -106 466 -125 687 -49 91 31 126 50 549 297 213
124 402 234 420 245 17 10 156 90 307 179 151 88 372 216 490 285 263 153 287
169 374 251 113 109 202 258 248 419 l23 77 2 1170 c2 1019 0 1180 -13 1250
-16 82 -51 190 -80 248 -58 112 -193 266 -294 333 -41 28 -277 167 -962 566
-131 76 -347 202 -480 280 -508 296 -542 313 -686 343 -61 13 -216 26 -224 20z"/>
<path d="M6254 1497 c-49 -30 -110 -65 -135 -79 -144 -81 -270 -161 -279 -178
-21 -39 -13 -46 302 -229 87 -50 171 -99 187 -109 16 -9 76 -44 133 -76 57
-33 146 -85 198 -116 52 -32 115 -68 140 -82 25 -14 67 -38 93 -53 56 -32 91
-28 101 10 4 14 6 154 6 311 l-1 285 -27 29 c-15 16 -144 97 -287 181 -189
110 -271 153 -300 156 -34 3 -53 -4 -131 -50z"/>
</g>
</svg>
